<?xml version="1.0" standalone="no"?>
<!DOCTYPE svg PUBLIC "-//W3C//DTD SVG 20010904//EN"
 "http://www.w3.org/TR/2001/REC-SVG-20010904/DTD/svg10.dtd">
<svg version="1.0" xmlns="http://www.w3.org/2000/svg"
 width="500.000000pt" height="500.000000pt" viewBox="0 0 500.000000 500.000000"
 preserveAspectRatio="xMidYMid meet">

<g transform="translate(0.000000,500.000000) scale(0.100000,-0.100000)"
fill="#000000" stroke="none">
<path d="M0 2500 l0 -2500 1678 0 1677 0 823 823 822 822 0 1678 0 1677 -2500
0 -2500 0 0 -2500z m4810 768 l0 -1543 -767 -767 -768 -768 -1542 0 -1543 0 0
2310 0 2310 2310 0 2310 0 0 -1542z"/>
<path d="M630 2966 l0 -1456 195 0 195 0 0 539 0 539 318 5 c329 6 421 16 557
62 243 83 437 248 544 462 60 120 83 222 88 388 8 233 -24 368 -122 515 -96
145 -256 262 -443 326 -183 63 -231 67 -809 71 l-523 5 0 -1456z m960 1113
c304 -37 475 -170 526 -407 44 -210 -13 -427 -149 -564 -144 -146 -307 -188
-729 -188 l-218 0 0 585 0 585 243 0 c133 0 281 -5 327 -11z"/>
<path d="M2730 3555 l0 -155 305 0 306 0 -4 -977 c-3 -886 -5 -984 -20 -1042
-46 -171 -139 -253 -325 -287 -159 -28 -327 -13 -512 46 -52 16 -101 30 -107
30 -10 0 -13 -43 -13 -184 l0 -184 108 -16 c353 -52 577 -46 769 22 118 41
187 86 283 182 123 123 175 235 200 434 6 50 10 501 10 1183 l0 1103 -500 0
-500 0 0 -155z"/>
</g>
</svg>
